STARTFONT 2.1
COMMENT METAFONT output 1995.04.12:1801
COMMENT fontid=MSAM V2.2
COMMENT codingscheme=TeX math symbols
COMMENT fontfacebyte
COMMENT jobname=msam10
COMMENT mag=0.4
COMMENT mode=cx
COMMENT pixels_per_inch=300
COMMENT blacker=0
COMMENT fillin=0.2
COMMENT o_correction=0.6
COMMENT Checksum 97b3eecd
COMMENT 
COMMENT This file is made by pktobdf using the above specified pk file.
COMMENT 
FONT -metafont-msam10-medium-r-normal--17-160-75-75-P-99-MetaFont-FONTSPECIFIC
SIZE 17 75 75
FONTBOUNDINGBOX 21 30 -1 -10
STARTPROPERTIES 21
FONT_ASCENT 14
FONT_DESCENT 5
FOUNDRY "metafont"
FAMILY_NAME "msam10"
WEIGHT_NAME "medium"
SLANT "r"
SETWIDTH_NAME "normal"
ADD_STYLE_NAME ""
PIXEL_SIZE 17
POINT_SIZE 160
RESOLUTOIN_X 75
RESOLUTOIN_Y 75
SPACING "P"
AVERAGE_WIDTH 99
CHARSET_REGISTRY "MetaFont"
CHARSET_ENCODING "FONTSPECIFIC"
AVG_CAPITAL_WIDTH 18
AVG_LOWERCASE_WIDTH 20
COPYRIGHT "MetaFont (public domain)"
DEVICE_FONT_NAME "msam10"
FULLNAME "msam10"
ENDPROPERTIES
CHARS 128
STARTCHAR Gamma
ENCODING 0
SWIDTH 776 0
DWIDTH 13 0
BBX 10 10 1 0
BITMAP
ffc0
8040
8040
8040
8640
8040
8040
8040
8040
ffc0
ENDCHAR
STARTCHAR Delta
ENCODING 1
SWIDTH 776 0
DWIDTH 13 0
BBX 10 10 1 0
BITMAP
ffc0
8440
8440
8440
ffc0
8440
8440
8440
8440
ffc0
ENDCHAR
STARTCHAR Theta
ENCODING 2
SWIDTH 776 0
DWIDTH 13 0
BBX 10 10 1 0
BITMAP
ffc0
c0c0
a140
9240
8c40
8c40
9240
a140
c0c0
ffc0
ENDCHAR
STARTCHAR Lamdba
ENCODING 3
SWIDTH 776 0
DWIDTH 13 0
BBX 10 10 1 0
BITMAP
ffc0
8040
8040
8040
8040
8040
8040
8040
8040
ffc0
ENDCHAR
STARTCHAR Xi
ENCODING 4
SWIDTH 776 0
DWIDTH 13 0
BBX 10 10 1 0
BITMAP
ffc0
ffc0
ffc0
ffc0
ffc0
ffc0
ffc0
ffc0
ffc0
ffc0
ENDCHAR
STARTCHAR Pi
ENCODING 5
SWIDTH 298 0
DWIDTH 5 0
BBX 2 2 1 0
BITMAP
c0
c0
ENDCHAR
STARTCHAR Sigma
ENCODING 6
SWIDTH 657 0
DWIDTH 11 0
BBX 8 14 1 -2
BITMAP
18
18
24
24
42
42
81
81
42
42
24
24
18
18
ENDCHAR
STARTCHAR Upsilon
ENCODING 7
SWIDTH 657 0
DWIDTH 11 0
BBX 8 14 1 -2
BITMAP
18
18
3c
3c
7e
7e
ff
ff
7e
7e
3c
3c
18
18
ENDCHAR
STARTCHAR Phi
ENCODING 8
SWIDTH 776 0
DWIDTH 13 0
BBX 10 12 1 -1
BITMAP
6000
3800
3100
5080
8040
8040
8040
8040
8040
4080
2100
1e00
ENDCHAR
STARTCHAR Psi
ENCODING 9
SWIDTH 776 0
DWIDTH 13 0
BBX 10 12 1 -1
BITMAP
0180
0700
2300
4280
8040
8040
8040
8040
8040
4080
2100
1e00
ENDCHAR
STARTCHAR Omega
ENCODING 10
SWIDTH 1015 0
DWIDTH 17 0
BBX 14 9 1 0
BITMAP
0010
0018
fffc
0000
0000
0000
fffc
6000
2000
ENDCHAR
STARTCHAR arrowup
ENCODING 11
SWIDTH 1015 0
DWIDTH 17 0
BBX 14 9 1 0
BITMAP
2000
6000
fffc
0000
0000
0000
fffc
0018
0010
ENDCHAR
STARTCHAR arrowdown
ENCODING 12
SWIDTH 776 0
DWIDTH 13 0
BBX 10 10 1 0
BITMAP
ffc0
8040
8040
8040
ffc0
8040
8040
8040
8040
ffc0
ENDCHAR
STARTCHAR quotesingle
ENCODING 13
SWIDTH 717 0
DWIDTH 12 0
BBX 9 12 1 0
BITMAP
8800
8800
8800
8800
8800
8f80
8800
8800
8800
8800
8800
8800
ENDCHAR
STARTCHAR exclamdown
ENCODING 14
SWIDTH 896 0
DWIDTH 15 0
BBX 12 12 1 0
BITMAP
8880
8880
8880
8880
8880
88f0
8880
8880
8880
8880
8880
8880
ENDCHAR
STARTCHAR questiondown
ENCODING 15
SWIDTH 597 0
DWIDTH 10 0
BBX 7 12 1 0
BITMAP
80
80
fe
80
80
80
80
fe
80
80
80
80
ENDCHAR
STARTCHAR dotlessi
ENCODING 16
SWIDTH 1015 0
DWIDTH 17 0
BBX 14 5 1 2
BITMAP
0090
00c8
fffc
00c8
0090
ENDCHAR
STARTCHAR dotlessj
ENCODING 17
SWIDTH 1015 0
DWIDTH 17 0
BBX 14 5 1 2
BITMAP
2400
4c00
fffc
4c00
2400
ENDCHAR
STARTCHAR grave
ENCODING 18
SWIDTH 1015 0
DWIDTH 17 0
BBX 14 11 1 -1
BITMAP
2000
4000
fffc
4000
2000
2000
2000
4000
fffc
4000
2000
ENDCHAR
STARTCHAR acute
ENCODING 19
SWIDTH 1015 0
DWIDTH 17 0
BBX 14 11 1 -1
BITMAP
0010
0008
fffc
0008
0010
0010
0010
0008
fffc
0008
0010
ENDCHAR
STARTCHAR caron
ENCODING 20
SWIDTH 836 0
DWIDTH 14 0
BBX 11 15 1 -3
BITMAP
2080
71c0
eae0
2080
2080
2080
2080
2080
2080
2080
2080
2080
2080
2080
2080
ENDCHAR
STARTCHAR breve
ENCODING 21
SWIDTH 836 0
DWIDTH 14 0
BBX 11 15 1 -3
BITMAP
2080
2080
2080
2080
2080
2080
2080
2080
2080
2080
2080
2080
eae0
71c0
2080
ENDCHAR
STARTCHAR macron
ENCODING 22
SWIDTH 418 0
DWIDTH 7 0
BBX 3 15 3 -3
BITMAP
80
c0
e0
80
80
80
80
80
80
80
80
80
80
80
80
ENDCHAR
STARTCHAR ring
ENCODING 23
SWIDTH 418 0
DWIDTH 7 0
BBX 3 15 3 -3
BITMAP
80
80
80
80
80
80
80
80
80
80
80
80
e0
c0
80
ENDCHAR
STARTCHAR cedilla
ENCODING 24
SWIDTH 418 0
DWIDTH 7 0
BBX 3 15 0 -3
BITMAP
20
60
e0
20
20
20
20
20
20
20
20
20
20
20
20
ENDCHAR
STARTCHAR germandbls
ENCODING 25
SWIDTH 418 0
DWIDTH 7 0
BBX 3 15 0 -3
BITMAP
20
20
20
20
20
20
20
20
20
20
20
20
e0
60
20
ENDCHAR
STARTCHAR ae
ENCODING 26
SWIDTH 1075 0
DWIDTH 18 0
BBX 16 5 0 2
BITMAP
8004
4002
7fff
4002
8004
ENDCHAR
STARTCHAR oe
ENCODING 27
SWIDTH 1075 0
DWIDTH 18 0
BBX 16 5 1 2
BITMAP
2001
4002
fffe
4002
2001
ENDCHAR
STARTCHAR oslash
ENCODING 28
SWIDTH 1015 0
DWIDTH 17 0
BBX 14 12 1 0
BITMAP
2000
2000
7ffc
4000
2000
2000
0010
0008
fffc
0008
0010
0010
ENDCHAR
STARTCHAR AE
ENCODING 29
SWIDTH 1015 0
DWIDTH 17 0
BBX 14 12 1 0
BITMAP
0010
0010
fff8
0008
0010
0010
2000
4000
fffc
4000
2000
2000
ENDCHAR
STARTCHAR OE
ENCODING 30
SWIDTH 478 0
DWIDTH 8 0
BBX 5 12 1 0
BITMAP
20
40
f8
48
28
08
08
08
08
08
08
08
ENDCHAR
STARTCHAR Oslash
ENCODING 31
SWIDTH 478 0
DWIDTH 8 0
BBX 5 12 1 0
BITMAP
20
10
f8
90
a0
80
80
80
80
80
80
80
ENDCHAR
STARTCHAR tilde
ENCODING 32
SWIDTH 1015 0
DWIDTH 17 0
BBX 14 5 1 2
BITMAP
0010
6188
927c
0c08
0010
ENDCHAR
STARTCHAR exclam
ENCODING 33
SWIDTH 1374 0
DWIDTH 23 0
BBX 20 5 1 2
BITMAP
200040
4c6320
f294f0
410820
200040
ENDCHAR
STARTCHAR quotedblright
ENCODING 34
SWIDTH 1015 0
DWIDTH 17 0
BBX 14 9 1 0
BITMAP
007c
0044
2044
4044
fff8
4040
2040
0040
0040
ENDCHAR
STARTCHAR numbersign
ENCODING 35
SWIDTH 1015 0
DWIDTH 17 0
BBX 14 9 1 0
BITMAP
f800
8800
8810
8808
7ffc
0408
0410
0400
0400
ENDCHAR
STARTCHAR dollar
ENCODING 36
SWIDTH 776 0
DWIDTH 13 0
BBX 10 12 1 2
BITMAP
1e00
1200
1200
0c00
0000
0000
0000
ffc0
0000
0000
0000
ffc0
ENDCHAR
STARTCHAR percent
ENCODING 37
SWIDTH 776 0
DWIDTH 13 0
BBX 10 17 1 -5
BITMAP
8000
8000
8000
4000
3000
0fc0
3800
4000
8000
8000
0000
0000
0000
7040
8840
8440
8380
ENDCHAR
STARTCHAR ampersand
ENCODING 38
SWIDTH 776 0
DWIDTH 13 0
BBX 10 17 1 -5
BITMAP
8000
6000
1800
0600
0180
00c0
0300
0c00
3000
c000
0000
0000
0000
7040
8840
8440
8380
ENDCHAR
STARTCHAR quoteright
ENCODING 39
SWIDTH 776 0
DWIDTH 13 0
BBX 10 18 1 -5
BITMAP
c000
3000
0c00
0300
00c0
0300
0c00
3000
c000
0000
7040
8840
8440
8380
7040
8840
8440
8380
ENDCHAR
STARTCHAR parenleft
ENCODING 40
SWIDTH 1075 0
DWIDTH 18 0
BBX 15 5 1 2
BITMAP
003c
0042
ffc2
0042
003c
ENDCHAR
STARTCHAR parenright
ENCODING 41
SWIDTH 657 0
DWIDTH 11 0
BBX 10 9 0 -1
BITMAP
0c00
0c00
0000
0000
0000
0000
0000
c0c0
c0c0
ENDCHAR
STARTCHAR asterisk
ENCODING 42
SWIDTH 657 0
DWIDTH 11 0
BBX 10 9 0 -1
BITMAP
c0c0
c0c0
0000
0000
0000
0000
0000
0c00
0c00
ENDCHAR
STARTCHAR plus
ENCODING 43
SWIDTH 776 0
DWIDTH 13 0
BBX 10 15 1 -3
BITMAP
0c00
0c00
0c00
0000
0000
ffc0
0000
0000
0000
ffc0
0000
0000
0c00
0c00
0c00
ENDCHAR
STARTCHAR comma
ENCODING 44
SWIDTH 836 0
DWIDTH 14 0
BBX 11 14 1 2
BITMAP
0400
0400
0a00
1100
1100
2080
3f80
0000
0000
ffe0
0000
0000
0000
ffe0
ENDCHAR
STARTCHAR hyphen
ENCODING 45
SWIDTH 776 0
DWIDTH 13 0
BBX 10 17 1 -5
BITMAP
0040
0040
0040
0080
0300
fc00
0700
0080
0040
0040
0000
0000
0000
7040
8840
8440
8380
ENDCHAR
STARTCHAR period
ENCODING 46
SWIDTH 776 0
DWIDTH 13 0
BBX 10 17 1 -5
BITMAP
0040
0180
0600
1800
6000
c000
3000
0c00
0300
00c0
0000
0000
0000
7040
8840
8440
8380
ENDCHAR
STARTCHAR slash
ENCODING 47
SWIDTH 776 0
DWIDTH 13 0
BBX 10 18 1 -5
BITMAP
00c0
0300
0c00
3000
c000
3000
0c00
0300
00c0
0000
7040
8840
8440
8380
7040
8840
8440
8380
ENDCHAR
STARTCHAR 0
ENCODING 48
SWIDTH 776 0
DWIDTH 13 0
BBX 10 14 1 -3
BITMAP
0040
0180
0600
1800
6040
8180
0600
1800
6000
c000
3000
0c00
0300
00c0
ENDCHAR
STARTCHAR 1
ENCODING 49
SWIDTH 776 0
DWIDTH 13 0
BBX 10 14 1 -3
BITMAP
8000
6000
1800
0600
8180
6040
1800
0600
0180
00c0
0300
0c00
3000
c000
ENDCHAR
STARTCHAR 2
ENCODING 50
SWIDTH 776 0
DWIDTH 13 0
BBX 10 13 1 0
BITMAP
0100
0100
0200
0440
f840
0080
0100
7e00
7e00
0100
0080
0040
0040
ENDCHAR
STARTCHAR 3
ENCODING 51
SWIDTH 776 0
DWIDTH 13 0
BBX 10 13 1 0
BITMAP
2000
2000
1000
8800
87c0
4000
2000
1fc0
1f80
2000
4000
8000
8000
ENDCHAR
STARTCHAR 4
ENCODING 52
SWIDTH 776 0
DWIDTH 13 0
BBX 9 13 2 -3
BITMAP
0080
0080
0100
0200
fc00
fc00
0200
0100
f080
0880
0400
0200
0200
ENDCHAR
STARTCHAR 5
ENCODING 53
SWIDTH 776 0
DWIDTH 13 0
BBX 10 17 1 -4
BITMAP
0040
0180
0600
1800
6000
c000
3000
0c00
0300
00c0
0000
0000
ffc0
0000
0000
0000
ffc0
ENDCHAR
STARTCHAR 6
ENCODING 54
SWIDTH 776 0
DWIDTH 13 0
BBX 10 14 1 -3
BITMAP
0040
0180
0600
1800
6000
c000
3000
0c00
0300
c0c0
3000
0c00
0300
00c0
ENDCHAR
STARTCHAR 7
ENCODING 55
SWIDTH 776 0
DWIDTH 13 0
BBX 12 16 0 -5
BITMAP
0030
01c0
0600
3800
c000
3800
0600
c1c0
3830
0600
01c0
0030
01c0
0600
3800
c000
ENDCHAR
STARTCHAR 8
ENCODING 56
SWIDTH 298 0
DWIDTH 5 0
BBX 4 8 0 1
BITMAP
c0
c0
40
60
60
20
30
10
ENDCHAR
STARTCHAR 9
ENCODING 57
SWIDTH 358 0
DWIDTH 6 0
BBX 6 1 1 4
BITMAP
fc
ENDCHAR
STARTCHAR colon
ENCODING 58
SWIDTH 776 0
DWIDTH 13 0
BBX 12 15 0 -3
BITMAP
0020
0030
0000
0000
0000
7fe0
0000
0000
0000
7fe0
0000
0000
0000
c000
4000
ENDCHAR
STARTCHAR semicolon
ENCODING 59
SWIDTH 776 0
DWIDTH 13 0
BBX 12 15 0 -3
BITMAP
4000
c000
0000
0000
0000
7fe0
0000
0000
0000
7fe0
0000
0000
0000
0030
0020
ENDCHAR
STARTCHAR less
ENCODING 60
SWIDTH 776 0
DWIDTH 13 0
BBX 10 13 1 -3
BITMAP
8000
8000
4000
2000
1fc0
1f80
2000
4000
87c0
8800
1000
2000
2000
ENDCHAR
STARTCHAR equal
ENCODING 61
SWIDTH 776 0
DWIDTH 13 0
BBX 10 17 1 -4
BITMAP
8000
6000
1800
0600
0180
00c0
0300
0c00
3000
c000
0000
0000
ffc0
0000
0000
0000
ffc0
ENDCHAR
STARTCHAR greater
ENCODING 62
SWIDTH 776 0
DWIDTH 13 0
BBX 10 14 1 -3
BITMAP
8000
6000
1800
0600
0180
00c0
0300
0c00
3000
c0c0
0300
0c00
3000
c000
ENDCHAR
STARTCHAR question
ENCODING 63
SWIDTH 776 0
DWIDTH 13 0
BBX 10 16 1 -5
BITMAP
c000
3000
0c00
0300
00c0
0300
0c00
30c0
c300
0c00
3000
c000
3000
0c00
0300
00c0
ENDCHAR
STARTCHAR at
ENCODING 64
SWIDTH 776 0
DWIDTH 13 0
BBX 11 10 1 -1
BITMAP
ffe0
8000
8000
8000
8000
8000
8000
8000
8000
ffe0
ENDCHAR
STARTCHAR A
ENCODING 65
SWIDTH 776 0
DWIDTH 13 0
BBX 12 10 0 -1
BITMAP
fff0
0010
0010
0010
0010
0010
0010
0010
0010
7ff0
ENDCHAR
STARTCHAR B
ENCODING 66
SWIDTH 776 0
DWIDTH 13 0
BBX 10 10 1 -1
BITMAP
c000
b000
8c00
8300
80c0
80c0
8300
8c00
b000
c000
ENDCHAR
STARTCHAR C
ENCODING 67
SWIDTH 776 0
DWIDTH 13 0
BBX 9 10 2 -1
BITMAP
0080
0380
0c80
3080
c080
c080
3080
0c80
0380
0080
ENDCHAR
STARTCHAR D
ENCODING 68
SWIDTH 776 0
DWIDTH 13 0
BBX 10 14 1 -3
BITMAP
c000
b000
8c00
8300
80c0
80c0
8300
8c00
b000
c000
0000
0000
0000
ffc0
ENDCHAR
STARTCHAR E
ENCODING 69
SWIDTH 776 0
DWIDTH 13 0
BBX 9 14 2 -3
BITMAP
0080
0380
0c80
3080
c080
c080
3080
0c80
0380
0080
0000
0000
0000
ff80
ENDCHAR
STARTCHAR F
ENCODING 70
SWIDTH 956 0
DWIDTH 16 0
BBX 12 10 2 0
BITMAP
0600
0600
0600
fff0
3fc0
1f80
1f80
1f80
1980
2040
ENDCHAR
STARTCHAR G
ENCODING 71
SWIDTH 478 0
DWIDTH 8 0
BBX 5 16 1 -4
BITMAP
d8
20
20
50
50
88
88
88
88
88
88
50
50
20
20
d8
ENDCHAR
STARTCHAR H
ENCODING 72
SWIDTH 717 0
DWIDTH 12 0
BBX 7 10 2 0
BITMAP
fe
fe
fe
fe
7c
7c
38
38
38
10
ENDCHAR
STARTCHAR I
ENCODING 73
SWIDTH 776 0
DWIDTH 13 0
BBX 10 10 1 -1
BITMAP
c000
f000
fc00
ff00
ffc0
ffc0
ff00
fc00
f000
c000
ENDCHAR
STARTCHAR J
ENCODING 74
SWIDTH 776 0
DWIDTH 13 0
BBX 9 10 2 -1
BITMAP
0080
0380
0f80
3f80
ff80
ff80
3f80
0f80
0380
0080
ENDCHAR
STARTCHAR K
ENCODING 75
SWIDTH 836 0
DWIDTH 14 0
BBX 7 7 0 1
BITMAP
18
18
0c
fe
0c
18
18
ENDCHAR
STARTCHAR L
ENCODING 76
SWIDTH 896 0
DWIDTH 15 0
BBX 7 7 0 1
BITMAP
18
30
30
fe
30
30
18
ENDCHAR
STARTCHAR M
ENCODING 77
SWIDTH 717 0
DWIDTH 12 0
BBX 7 9 2 0
BITMAP
10
28
28
28
44
44
82
82
fe
ENDCHAR
STARTCHAR N
ENCODING 78
SWIDTH 717 0
DWIDTH 12 0
BBX 7 9 2 0
BITMAP
10
38
38
38
7c
7c
fe
fe
fe
ENDCHAR
STARTCHAR O
ENCODING 79
SWIDTH 717 0
DWIDTH 12 0
BBX 7 10 2 0
BITMAP
fe
82
82
82
44
44
28
28
28
10
ENDCHAR
STARTCHAR P
ENCODING 80
SWIDTH 776 0
DWIDTH 13 0
BBX 10 5 1 2
BITMAP
ffc0
0000
0000
0000
ffc0
ENDCHAR
STARTCHAR Q
ENCODING 81
SWIDTH 776 0
DWIDTH 13 0
BBX 10 25 1 -10
BITMAP
00c0
0300
0c00
3000
c000
3000
0c00
0300
00c0
0000
0000
0000
ff80
0000
0000
0000
c000
3000
0c00
0300
0080
0300
0c00
3000
c000
ENDCHAR
STARTCHAR R
ENCODING 82
SWIDTH 776 0
DWIDTH 13 0
BBX 10 25 1 -10
BITMAP
c000
3000
0c00
0300
00c0
0300
0c00
3000
c000
0000
0000
0000
ff80
0000
0000
0000
0080
0300
0c00
3000
c000
3000
0c00
0300
0080
ENDCHAR
STARTCHAR S
ENCODING 83
SWIDTH 776 0
DWIDTH 13 0
BBX 10 30 1 -10
BITMAP
0040
0180
0600
1800
e000
6000
1800
0600
01c0
0000
0000
0000
ffc0
0000
0000
0000
0000
ffc0
0000
0000
0000
e000
1800
0600
0180
01c0
0600
1800
6000
8000
ENDCHAR
STARTCHAR T
ENCODING 84
SWIDTH 776 0
DWIDTH 13 0
BBX 10 30 1 -10
BITMAP
8000
6000
1800
0600
01c0
0180
0600
1800
e000
0000
0000
0000
ffc0
0000
0000
0000
0000
ffc0
0000
0000
0000
01c0
0600
1800
6000
e000
1800
0600
0180
0040
ENDCHAR
STARTCHAR U
ENCODING 85
SWIDTH 717 0
DWIDTH 12 0
BBX 11 11 0 0
BITMAP
f1e0
2080
1100
7fc0
0a00
0e00
0400
7fc0
0400
0400
1f00
ENDCHAR
STARTCHAR V
ENCODING 86
SWIDTH 1015 0
DWIDTH 17 0
BBX 14 13 1 -2
BITMAP
0080
0080
ffc0
0060
0020
0010
fffc
0010
0020
0060
ffc0
0080
0080
ENDCHAR
STARTCHAR W
ENCODING 87
SWIDTH 1015 0
DWIDTH 17 0
BBX 13 13 2 -2
BITMAP
0800
0800
1ff8
3000
2000
4000
fff8
4000
2000
3000
1ff8
0800
0800
ENDCHAR
STARTCHAR X
ENCODING 88
SWIDTH 836 0
DWIDTH 14 0
BBX 11 12 1 0
BITMAP
0060
0080
0100
0100
0200
0400
0400
8800
4800
5000
3000
3000
ENDCHAR
STARTCHAR Y
ENCODING 89
SWIDTH 597 0
DWIDTH 10 0
BBX 7 12 1 0
BITMAP
82
42
44
24
24
18
18
00
00
00
00
fe
ENDCHAR
STARTCHAR Z
ENCODING 90
SWIDTH 597 0
DWIDTH 10 0
BBX 7 12 1 0
BITMAP
fe
00
00
00
08
18
28
24
44
44
82
82
ENDCHAR
STARTCHAR bracketleft
ENCODING 91
SWIDTH 597 0
DWIDTH 10 0
BBX 7 16 1 -2
BITMAP
fe
00
00
00
fe
00
00
00
00
18
18
24
24
44
42
82
ENDCHAR
STARTCHAR leftdblquote
ENCODING 92
SWIDTH 717 0
DWIDTH 12 0
BBX 9 12 1 0
BITMAP
0080
0100
0100
0200
0400
0800
0800
1000
2000
4000
4000
ff80
ENDCHAR
STARTCHAR bracketright
ENCODING 93
SWIDTH 717 0
DWIDTH 12 0
BBX 9 12 1 0
BITMAP
0080
0100
0200
0200
0400
0800
1000
1800
2800
4400
4400
ff80
ENDCHAR
STARTCHAR circumflex
ENCODING 94
SWIDTH 717 0
DWIDTH 12 0
BBX 9 9 1 0
BITMAP
0100
0700
1880
6080
8080
6080
1880
0700
0180
ENDCHAR
STARTCHAR dotaccent
ENCODING 95
SWIDTH 776 0
DWIDTH 13 0
BBX 10 7 1 1
BITMAP
38c0
4500
8200
8200
8200
4500
38c0
ENDCHAR
STARTCHAR leftquote
ENCODING 96
SWIDTH 776 0
DWIDTH 13 0
BBX 10 3 1 3
BITMAP
8040
4080
3f00
ENDCHAR
STARTCHAR a
ENCODING 97
SWIDTH 776 0
DWIDTH 13 0
BBX 10 4 1 3
BITMAP
1e00
2100
4080
8040
ENDCHAR
STARTCHAR b
ENCODING 98
SWIDTH 776 0
DWIDTH 13 0
BBX 10 11 1 -1
BITMAP
1fc0
2000
4000
8000
8fc0
9000
8fc0
8000
4000
2000
1fc0
ENDCHAR
STARTCHAR c
ENCODING 99
SWIDTH 776 0
DWIDTH 13 0
BBX 10 11 1 -1
BITMAP
fe00
0100
0080
0040
fc40
0240
fc40
0040
0080
0100
fe00
ENDCHAR
STARTCHAR d
ENCODING 100
SWIDTH 657 0
DWIDTH 11 0
BBX 8 10 1 0
BITMAP
99
99
99
99
99
99
99
81
42
3c
ENDCHAR
STARTCHAR e
ENCODING 101
SWIDTH 657 0
DWIDTH 11 0
BBX 8 10 1 0
BITMAP
3c
42
81
99
99
99
99
99
99
99
ENDCHAR
STARTCHAR f
ENCODING 102
SWIDTH 776 0
DWIDTH 13 0
BBX 10 9 1 0
BITMAP
0400
0400
0400
0400
0400
0a00
0a00
1100
e0c0
ENDCHAR
STARTCHAR g
ENCODING 103
SWIDTH 776 0
DWIDTH 13 0
BBX 10 9 1 0
BITMAP
e0c0
1100
0a00
0a00
0400
0400
0400
0400
0400
ENDCHAR
STARTCHAR h
ENCODING 104
SWIDTH 776 0
DWIDTH 13 0
BBX 10 12 1 0
BITMAP
8000
4000
2000
2000
1000
0800
0c00
1200
2100
2100
4080
8040
ENDCHAR
STARTCHAR i
ENCODING 105
SWIDTH 776 0
DWIDTH 13 0
BBX 10 12 1 0
BITMAP
0040
0080
0100
0100
0200
0400
0c00
1200
2100
2100
4080
8040
ENDCHAR
STARTCHAR j
ENCODING 106
SWIDTH 776 0
DWIDTH 13 0
BBX 10 18 1 -5
BITMAP
1fc0
2000
4000
8000
8000
8000
8000
4000
2000
1fc0
0000
0000
0000
ffc0
0000
0000
0000
ffc0
ENDCHAR
STARTCHAR k
ENCODING 107
SWIDTH 776 0
DWIDTH 13 0
BBX 10 18 1 -5
BITMAP
fe00
0100
0080
0040
0040
0040
0040
0080
0100
fe00
0000
0000
0000
ffc0
0000
0000
0000
ffc0
ENDCHAR
STARTCHAR l
ENCODING 108
SWIDTH 776 0
DWIDTH 13 0
BBX 10 7 1 2
BITMAP
0c00
1200
f3c0
0000
0000
0000
ffc0
ENDCHAR
STARTCHAR m
ENCODING 109
SWIDTH 776 0
DWIDTH 13 0
BBX 10 9 1 0
BITMAP
0c00
1200
f3c0
0000
0000
0000
f3c0
1200
0c00
ENDCHAR
STARTCHAR n
ENCODING 110
SWIDTH 1314 0
DWIDTH 22 0
BBX 19 11 1 -1
BITMAP
004620
0198c0
062300
18cc00
633000
8c4000
633000
188c00
066300
0198c0
004620
ENDCHAR
STARTCHAR o
ENCODING 111
SWIDTH 1314 0
DWIDTH 22 0
BBX 19 11 1 -1
BITMAP
8cc000
633000
188c00
066300
0198c0
006620
0198c0
062300
18cc00
633000
8cc000
ENDCHAR
STARTCHAR p
ENCODING 112
SWIDTH 478 0
DWIDTH 8 0
BBX 5 5 1 7
BITMAP
f8
80
80
80
80
ENDCHAR
STARTCHAR q
ENCODING 113
SWIDTH 478 0
DWIDTH 8 0
BBX 5 5 1 7
BITMAP
f8
08
08
08
08
ENDCHAR
STARTCHAR r
ENCODING 114
SWIDTH 956 0
DWIDTH 16 0
BBX 15 15 0 -3
BITMAP
0fe0
1010
2008
4f84
4444
8442
8442
8782
8442
8442
4444
4e74
2008
1830
07c0
ENDCHAR
STARTCHAR s
ENCODING 115
SWIDTH 896 0
DWIDTH 15 0
BBX 16 15 -1 -3
BITMAP
07e0
1818
2004
21c4
4242
4202
4202
8181
4042
4042
4242
2384
1008
0c30
03c0
ENDCHAR
STARTCHAR t
ENCODING 116
SWIDTH 657 0
DWIDTH 11 0
BBX 8 13 1 0
BITMAP
08
08
08
08
3c
4a
89
89
89
89
89
89
89
ENDCHAR
STARTCHAR u
ENCODING 117
SWIDTH 776 0
DWIDTH 13 0
BBX 10 15 1 -1
BITMAP
0400
0e00
0e00
0000
0400
0400
0400
0400
0400
ffc0
0400
0400
0400
0400
0400
ENDCHAR
STARTCHAR v
ENCODING 118
SWIDTH 776 0
DWIDTH 13 0
BBX 10 4 1 2
BITMAP
8380
8480
4840
7040
ENDCHAR
STARTCHAR w
ENCODING 119
SWIDTH 776 0
DWIDTH 13 0
BBX 10 8 1 0
BITMAP
8380
8480
4840
7040
0000
0000
0000
ffc0
ENDCHAR
STARTCHAR x
ENCODING 120
SWIDTH 478 0
DWIDTH 8 0
BBX 5 5 1 0
BITMAP
80
80
80
80
f8
ENDCHAR
STARTCHAR y
ENCODING 121
SWIDTH 478 0
DWIDTH 8 0
BBX 5 5 1 0
BITMAP
08
08
08
08
f8
ENDCHAR
STARTCHAR z
ENCODING 122
SWIDTH 836 0
DWIDTH 14 0
BBX 13 12 0 0
BITMAP
1fc0
0f80
0700
c218
e238
fff8
fff8
e238
c218
0700
0f80
1fc0
ENDCHAR
STARTCHAR endash
ENCODING 123
SWIDTH 478 0
DWIDTH 8 0
BBX 5 14 1 0
BITMAP
70
f8
d8
d8
d8
c0
c0
c0
c0
d8
d8
d8
f8
70
ENDCHAR
STARTCHAR emdash
ENCODING 124
SWIDTH 537 0
DWIDTH 9 0
BBX 6 10 1 -3
BITMAP
fc
fc
30
30
30
30
30
30
30
30
ENDCHAR
STARTCHAR quotedbl
ENCODING 125
SWIDTH 776 0
DWIDTH 13 0
BBX 10 11 1 -1
BITMAP
1e00
2100
4080
8c40
9240
9240
8c40
8040
4080
2100
1e00
ENDCHAR
STARTCHAR hungarumlaut
ENCODING 126
SWIDTH 776 0
DWIDTH 13 0
BBX 12 11 0 -1
BITMAP
0f00
30c0
4220
8210
9b90
8610
9b90
8210
4220
30c0
0f00
ENDCHAR
STARTCHAR dieresis
ENCODING 127
SWIDTH 776 0
DWIDTH 13 0
BBX 10 11 1 -1
BITMAP
1e00
2100
4080
8040
8040
9e40
8040
8040
4080
2100
1e00
ENDCHAR
ENDFONT
